<?xml version="1.0" standalone="no"?>
<!DOCTYPE svg PUBLIC "-//W3C//DTD SVG 20010904//EN"
 "http://www.w3.org/TR/2001/REC-SVG-20010904/DTD/svg10.dtd">
<svg xmlns="http://www.w3.org/2000/svg" width="16" height="16" fill="none">
  <g fill-rule="evenodd" clip-path="url(#clip0)" clip-rule="evenodd">
    <path fill="url(#paint0_radial)" d="M11.8593.806641H4.14049C2.16926.806641.571411 2.40449.571411 4.37572v7.71918c0 1.9712 1.597849 3.5689 3.569079 3.5689h7.71901c1.9712 0 3.5691-1.5977 3.5691-3.5689V4.37572C15.4284 2.40449 13.8305.806641 11.8593.806641z"/>
    <path fill="url(#paint1_radial)" d="M11.8593.285156H4.14049C2.16926.285156.571411 1.883.571411 3.85423v7.71917c0 1.9712 1.597849 3.5689 3.569079 3.5689h7.71901c1.9712 0 3.5691-1.5977 3.5691-3.5689V3.85423C15.4284 1.8832 13.8305.285156 11.8593.285156z"/>
    <path fill="#2B2B2B" d="M10.0053 14.3543h.4017c.1702-.0276.3425-.0459.5101-.0839 1.2736-.2884 2.2396-1.3092 2.4548-2.5918.1382-.823-.0225-1.587-.481-2.28308-.7345-1.11515-1.4774-2.2251-2.2151-3.33833-.0838-.12602-.189-.2191-.3374-.25648-.2274-.05723-.44626.02755-.58192.2297-.28154.41893-.56057.8394-.84056 1.25948-.42086.63109-.84133 1.26218-1.26218 1.89308-.26111.39176-.491.79855-.58272 1.26723-.23703 1.2122.09384 2.2472.99991 3.0853.52395.4848 1.15639.7451 1.86977.8043.02158.0019.04297.0094.0646.0145z"/>
    <path fill="#fff" d="M2.64911 4.97461c.09134.46845.32162.87543.58272 1.26719.42086.6309.84133 1.26219 1.2618 1.89308.28.4197.55902.84056.84056 1.25949.13566.20214.35495.28712.58195.2297.14819-.03719.25359-.13046.33742-.25649.73785-1.11303 1.48051-2.22298 2.21508-3.33852.45882-.69564.61934-1.4597.48098-2.2831-.21486-1.28261-1.18125-2.30297-2.45442-2.59182-.16803-.03816-.3403-.05646-.51026-.08383h-.40178c-.02159.00501-.04259.01234-.06456.01426-.71299.05935-1.34562.31969-1.86996.80452-.90568.83806-1.23693 1.87305-.99953 3.08552zm3.13715-2.25594c.86715 0 1.57012.70317 1.57012 1.57031 0 .86715-.70297 1.57012-1.57012 1.57012s-1.57011-.70297-1.57011-1.57012c0-.86695.70296-1.57031 1.57011-1.57031z"/>
  </g>
  <defs>
    <radialGradient id="paint0_radial" cx="0" cy="0" r="1" gradientTransform="translate(11.7359 4.45564) scale(16.3796)" gradientUnits="userSpaceOnUse">
      <stop stop-color="#73491D"/>
      <stop offset="1" stop-color="#721518"/>
    </radialGradient>
    <radialGradient id="paint1_radial" cx="0" cy="0" r="1" gradientTransform="translate(11.7359 3.93429) scale(16.3796)" gradientUnits="userSpaceOnUse">
      <stop stop-color="#F49C44"/>
      <stop offset="1" stop-color="#E52336"/>
    </radialGradient>
    <clipPath id="clip0">
      <path fill="#fff" d="M0 0h14.8571v15.3774H0z" transform="translate(.571411 .285156)"/>
    </clipPath>
  </defs>
</svg>
